<svg xmlns="http://www.w3.org/2000/svg" xmlns:xlink="http://www.w3.org/1999/xlink" xmlns:lucid="lucid" width="3820" height="2240"><g transform="translate(1840 -240)" lucid:page-tab-id="0_0"><path d="M-3613.73 0h7291.46v2581.67h-7291.46z" fill="#fff"/><path d="M0 446c0-3.3 2.7-6 6-6h228c3.3 0 6 2.7 6 6v108c0 3.3-2.7 6-6 6H6c-3.3 0-6-2.7-6-6z" stroke="#5e5e5e" stroke-width="3" fill="#fff"/><use xlink:href="#a" transform="matrix(1,0,0,1,5,445) translate(82.34567901234568 59.02777777777778)"/><path d="M520 320c0 33.14-35.82 60-80 60s-80-26.86-80-60 35.82-60 80-60 80 26.86 80 60z" stroke="#5e5e5e" stroke-width="3" fill="#fff"/><use xlink:href="#b" transform="matrix(1,0,0,1,360,260) translate(47.967962962962964 62.77777777777778)"/><path d="M560 480c0 33.14-35.82 60-80 60s-80-26.86-80-60 35.82-60 80-60 80 26.86 80 60z" stroke="#5e5e5e" stroke-width="3" fill="#fff"/><use xlink:href="#c" transform="matrix(1,0,0,1,400,420) translate(57.782777777777774 62.77777777777778)"/><path d="M500 640c0 33.14-35.82 60-80 60s-80-26.86-80-60 35.82-60 80-60 80 26.86 80 60z" stroke="#5e5e5e" stroke-width="3" fill="#fff"/><use xlink:href="#d" transform="matrix(1,0,0,1,340,580) translate(57.84450617283951 62.77777777777778)"/><path d="M242.5 499.98h.18l1.15-.08 1.13-.12 1.12-.16 1.1-.2 1.1-.27 1.07-.3 1.1-.35 1.08-.4 1.1-.47 1.1-.52 1.14-.58 1.15-.67 1.18-.75 1.2-.84 1.26-.95 1.3-1.06 1.35-1.22 1.43-1.4 1.5-1.6 1.6-1.84 1.7-2.16 1.85-2.55 2.02-3.04 2.24-3.7 2.52-4.6 2.93-5.92 3.54-8 4.73-12 28-80.4 3.54-8 2.94-5.93 2.52-4.6 2.24-3.7 2.02-3.04 1.85-2.55 1.7-2.16 1.6-1.85 1.5-1.6 1.42-1.4 1.34-1.2 1.3-1.08 1.25-.96 1.2-.84 1.18-.75 1.15-.67 1.13-.6 1.1-.5 1.1-.47 1.1-.4 1.1-.35 1.07-.3 1.1-.26 1.1-.22 1.1-.16 1.14-.12 1.15-.08h.18" stroke="#5e5e5e" stroke-width="2" fill="none"/><path d="M242.55 500.98l-1.05.02v-2l1-.02M358.5 319.98v.43l.02.6h-1.05v-2h1.06" fill="#5e5e5e"/><path d="M242.5 499.98l15.7-.3 12.97-.82 10.8-1.13 9.8-1.44 10-1.93 46.47-10.66 9.78-1.43 10.8-1.13 12.97-.8 15.7-.32" stroke="#5e5e5e" stroke-width="2" fill="none"/><path d="M242.55 500.98l-1.05.02v-2l1-.02M398.5 479.98v.43l.02.6h-1.05v-2h1.06" fill="#5e5e5e"/><path d="M242.5 500.02h.04l1.02.07 1 .1.97.13.97.2.95.2.95.28.95.32.95.35.96.4.97.46.98.5 1 .6 1.02.64 1.05.72 1.08.82 1.12.92 1.17 1.06 1.23 1.2 1.3 1.38 1.37 1.6 1.47 1.86 1.6 2.2 1.76 2.63 1.94 3.2 2.2 4.04 2.6 5.25 3.25 7.3 4.73 12.04 18.57 51.04 3.24 7.3 2.6 5.25 2.2 4.02 1.94 3.2 1.75 2.65 1.6 2.2 1.46 1.86 1.38 1.6 1.3 1.37 1.22 1.2 1.17 1.06 1.12.92 1.08.83 1.05.73 1.02.65 1 .58.97.5.97.47.96.4.95.35.95.3.95.28.95.22.97.2.98.13 1 .1 1 .08h.05" stroke="#5e5e5e" stroke-width="2" fill="none"/><path d="M242.55 499.02l-.04 2-1-.02v-2M338.53 639l-.03.98v.43l.02.6h-1.05v-2" fill="#5e5e5e"/><path d="M480 960c0 33.14-35.82 60-80 60s-80-26.86-80-60 35.82-60 80-60 80 26.86 80 60z" stroke="#5e5e5e" stroke-width="3" fill="#fff"/><use xlink:href="#b" transform="matrix(1,0,0,1,320,900) translate(47.967962962962964 62.77777777777778)"/><path d="M520 1160c0 33.14-35.82 60-80 60s-80-26.86-80-60 35.82-60 80-60 80 26.86 80 60z" stroke="#5e5e5e" stroke-width="3" fill="#fff"/><use xlink:href="#e" transform="matrix(1,0,0,1,360,1100) translate(50.40623456790123 62.77777777777778)"/><path d="M0 1046c0-3.3 2.7-6 6-6h228c3.3 0 6 2.7 6 6v108c0 3.3-2.7 6-6 6H6c-3.3 0-6-2.7-6-6z" stroke="#5e5e5e" stroke-width="3" fill="#fff"/><path d="M6 1052c0-3.3 2.7-6 6-6h216c3.3 0 6 2.7 6 6v96c0 3.3-2.7 6-6 6H12c-3.3 0-6-2.7-6-6z" stroke="#5e5e5e" stroke-width="3" fill="#fff"/><path d="M6 1052c0-3.3 2.7-6 6-6h216c3.3 0 6 2.7 6 6v96c0 3.3-2.7 6-6 6H12c-3.3 0-6-2.7-6-6z" fill="none"/><use xlink:href="#e" transform="matrix(1,0,0,1,0,1040) translate(90.40623456790124 62.77777777777778)"/><path d="M115.48 743.95c2.5-2.18 6.54-2.18 9.04 0l70.96 62.1c2.5 2.18 2.5 5.72 0 7.9l-70.96 62.1c-2.5 2.18-6.54 2.18-9.04 0l-70.96-62.1c-2.5-2.18-2.5-5.72 0-7.9z" stroke="#5e5e5e" stroke-width="3" fill="#fff"/><path d="M115.48 750.95c2.5-2.18 6.54-2.18 9.04 0l62.96 55.1c2.5 2.18 2.5 5.72 0 7.9l-62.96 55.1c-2.5 2.18-6.54 2.18-9.04 0l-62.96-55.1c-2.5-2.18-2.5-5.72 0-7.9z" stroke="#5e5e5e" stroke-width="3" fill="#fff"/><path d="M115.48 750.95c2.5-2.18 6.54-2.18 9.04 0l62.96 55.1c2.5 2.18 2.5 5.72 0 7.9l-62.96 55.1c-2.5 2.18-6.54 2.18-9.04 0l-62.96-55.1c-2.5-2.18-2.5-5.72 0-7.9z" fill="none"/><use xlink:href="#f" transform="matrix(1,0,0,1,40,740) translate(47.937098765432104 74.65277777777777)"/><path d="M121 739.87h-2V588.7h2m0-21.34h-2v-4.86h2" fill="#5e5e5e"/><path d="M121 562.53h-2v-1.03h2M121 740.94l-1.68-.12-.32.08v-1.05h2" fill="#5e5e5e"/><use xlink:href="#g" transform="matrix(1,0,0,1,101.77777777777777,567.3624677941156) translate(0 14.222222222222223)"/><path d="M123 1037.5h-2v-19.15h2m0-21.33h-2v-116.9h2M119 1037.5h-2v-19.15h2m0-21.33h-2v-116.9h2" fill="#5e5e5e"/><path d="M123 880.16h-2v-1.06l2-.46M118.06 879l.94.06v1.1h-2v-1.6M123 1038.5h-2v-1.03h2M119 1038.5h-2v-1.03h2" fill="#5e5e5e"/><use xlink:href="#h" transform="matrix(1,0,0,1,103.25925925925925,997.0156197082717) translate(0 14.222222222222223)"/><path d="M242.5 1099.96h.3l.64-.08.63-.1.62-.1.6-.16.63-.17.63-.2.62-.24.64-.25.64-.3.65-.35.68-.4.7-.42.7-.5.73-.55.78-.63.8-.72.83-.83.9-.95.95-1.1 1-1.27 1.1-1.5 1.2-1.8 1.32-2.2 1.47-2.68 1.68-3.38 1.96-4.42 2.4-6.05 3.17-9.17 6.05-20.4 11.05-38.46 3.18-9.17 2.4-6.05 1.95-4.42 1.68-3.38 1.47-2.7 1.32-2.17 1.2-1.8 1.1-1.5 1-1.3.95-1.08.9-.95.83-.83.8-.72.76-.63.72-.56.7-.48.7-.43.67-.4.64-.34.64-.3.64-.27.62-.25.63-.2.62-.17.6-.15.63-.12.63-.08.64-.07h.3" stroke="#5e5e5e" stroke-width="2" fill="none"/><path d="M242.55 1100.98l-1.05.02v-2l1-.02M318.5 959.98v.43l.02.6h-1.05v-2h1.06" fill="#5e5e5e"/><path d="M242.5 1100.02l2.5.05 3.27.2 3.05.34 2.88.44 2.73.53 2.6.63 2.53.72 2.45.8 2.4.92 2.38 1.02 2.37 1.14 2.38 1.28 2.43 1.43 2.52 1.66 2.68 1.9 2.93 2.3 3.38 2.9 4.5 4.18 19.54 19.3 3.4 2.9 2.92 2.3 2.68 1.9 2.52 1.65 2.43 1.42 2.38 1.28 2.37 1.14 2.37 1.02 2.4.9 2.44.82 2.52.72 2.6.63 2.74.53 2.88.43 3.05.32 3.26.2 2.5.06" stroke="#5e5e5e" stroke-width="2" fill="none"/><path d="M242.55 1099.02l-.04 2-1-.02v-2M358.53 1159l-.03.98v.43l.02.6h-1.05v-2" fill="#5e5e5e"/><path d="M-560 1886c0-3.3 2.7-6 6-6h228c3.3 0 6 2.7 6 6v108c0 3.3-2.7 6-6 6h-228c-3.3 0-6-2.7-6-6z" stroke="#5e5e5e" stroke-width="3" fill="#fff"/><use xlink:href="#i" transform="matrix(1,0,0,1,-555,1885) translate(90.3395061728395 59.02777777777778)"/><path d="M660 1966c0-3.3 2.7-6 6-6h228c3.3 0 6 2.7 6 6v108c0 3.3-2.7 6-6 6H666c-3.3 0-6-2.7-6-6z" stroke="#5e5e5e" stroke-width="3" fill="#fff"/><use xlink:href="#j" transform="matrix(1,0,0,1,665,1965) translate(78.02469135802468 59.02777777777778)"/><path d="M-300 2126c0-3.3 2.7-6 6-6h228c3.3 0 6 2.7 6 6v108c0 3.3-2.7 6-6 6h-228c-3.3 0-6-2.7-6-6z" stroke="#5e5e5e" stroke-width="3" fill="#fff"/><use xlink:href="#k" transform="matrix(1,0,0,1,-295,2125) translate(89.72222222222223 59.02777777777778)"/><path d="M-439.12 1878.03L25.84 1630.2" stroke="#5e5e5e" stroke-width="2" fill="none"/><path d="M-438.84 1878.5h-3.3l2.57-1.36" fill="#5e5e5e"/><path d="M39.3 1623.02l-10.4 10.8-4.36-8.18z" stroke="#5e5e5e" stroke-width="2" fill="#5e5e5e"/><path d="M111.3 1637.86l-289.93 480.3-1.7-1.03 289.9-480.3" fill="#5e5e5e"/><path d="M-178.6 2118.14l-.23.36h-2.34l.84-1.4M114.92 1638.88l-7.93-4.8 11.33-9.8z" fill="#5e5e5e"/><path d="M115.6 1640.45l-10.3-6.22 14.7-12.73m-11.32 12.44l5.58 3.37 2.4-10.26M779.64 1957.13l-1 1.73-565.3-327.23 1-1.73" fill="#5e5e5e"/><path d="M782 1958.5h-3.2l.8-1.38M215.3 1626.26l-4.64 8.02-10.02-11.16z" fill="#5e5e5e"/><path d="M216.86 1625.57l-6.02 10.4-13-14.47m12.65 11.1l3.25-5.65-10.3-2.2" fill="#5e5e5e"/><path d="M0 1506c0-3.3 2.7-6 6-6h228c3.3 0 6 2.7 6 6v108c0 3.3-2.7 6-6 6H6c-3.3 0-6-2.7-6-6z" stroke="#5e5e5e" stroke-width="3" fill="#fff"/><use xlink:href="#l" transform="matrix(1,0,0,1,5,1505) translate(61.01851851851851 59.02777777777778)"/><path d="M520 1340c0 33.14-35.82 60-80 60s-80-26.86-80-60 35.82-60 80-60 80 26.86 80 60z" stroke="#5e5e5e" stroke-width="3" fill="#fff"/><use xlink:href="#m" transform="matrix(1,0,0,1,360,1280) translate(47.967962962962964 62.77777777777778)"/><path d="M242.5 1516.9h.2l1.17-.07 1.15-.12 1.13-.16 1.12-.2 1.1-.27 1.1-.3 1.1-.37 1.12-.4 1.1-.48 1.13-.53 1.14-.6 1.16-.68 1.2-.76 1.22-.85 1.26-.95 1.33-1.08 1.37-1.24 1.43-1.4 1.52-1.62 1.6-1.86 1.74-2.18 1.86-2.58 2.04-3.07 2.26-3.74 2.56-4.67 2.98-6.02 3.64-8.2 4.93-12.52 26.6-75.52 3.63-8.2 2.98-6 2.56-4.67 2.26-3.75 2.04-3.08 1.87-2.57 1.74-2.18 1.6-1.88 1.53-1.62 1.43-1.4 1.37-1.24 1.32-1.1 1.25-.95 1.23-.84 1.2-.75 1.15-.67 1.14-.6 1.13-.52 1.1-.46 1.12-.4 1.1-.37 1.1-.3 1.1-.27 1.13-.2 1.13-.18 1.15-.12 1.17-.07h.2" stroke="#5e5e5e" stroke-width="2" fill="none"/><path d="M242.55 1517.9l-1.05.03v-2l1-.02M358.5 1339.98v.43l.02.6h-1.05v-2h1.06" fill="#5e5e5e"/><path d="M620 1440c0 33.14-35.82 60-80 60s-80-26.86-80-60 35.82-60 80-60 80 26.86 80 60z" stroke="#5e5e5e" stroke-width="3" fill="#fff"/><use xlink:href="#n" transform="matrix(1,0,0,1,460,1380) translate(58.430925925925926 62.77777777777778)"/><path d="M242.5 1518.33l7.94-.16 8.05-.5 7.35-.78 6.8-1 6.35-1.22 6-1.4 5.74-1.6 5.57-1.82 5.47-2.03 5.47-2.3 5.58-2.63 5.87-3.07 6.5-3.76 7.97-5.07 41.64-28.72 6.5-3.76 5.88-3.07 5.58-2.63 5.47-2.3 5.46-2.03 5.56-1.82 5.74-1.6 6-1.4 6.35-1.22 6.8-1 7.36-.77 8.06-.52 7.94-.16" stroke="#5e5e5e" stroke-width="2" fill="none"/><path d="M242.55 1519.33l-1.05.02v-2l1-.02M458.5 1439.98v.43l.02.6h-1.05v-2h1.06" fill="#5e5e5e"/><path d="M-120 2400c0 33.14-35.82 60-80 60s-80-26.86-80-60 35.82-60 80-60 80 26.86 80 60z" stroke="#5e5e5e" stroke-width="3" fill="#fff"/><use xlink:href="#o" transform="matrix(1,0,0,1,-280,2340) translate(57.84450617283951 62.77777777777778)"/><path d="M-180.02 2242.5l-.18 7.1-.5 6.63-.74 5.66-.92 5.03-1.12 4.75-1.4 4.82-2 5.73-8.24 21.27-1.4 4.82-1.12 4.75-.92 5.04-.73 5.67-.5 6.62-.18 7.1" stroke="#5e5e5e" stroke-width="2" fill="none"/><path d="M-179.03 2242.55l-2-.05.03-1h2M-199 2337.47v1.06l-.98-.03H-201v-1.03" fill="#5e5e5e"/><path d="M115.48 1263.95c2.5-2.18 6.54-2.18 9.04 0l70.96 62.1c2.5 2.18 2.5 5.72 0 7.9l-70.96 62.1c-2.5 2.18-6.54 2.18-9.04 0l-70.96-62.1c-2.5-2.18-2.5-5.72 0-7.9z" stroke="#5e5e5e" stroke-width="3" fill="#fff"/><use xlink:href="#p" transform="matrix(1,0,0,1,40,1260) translate(52.28895061728396 74.65277777777777)"/><path d="M121 1259.87h-2v-70.53h2m0-21.33h-2v-5.5h2" fill="#5e5e5e"/><path d="M121 1162.53h-2v-1.03h2M121 1260.94l-1.68-.12-.32.08v-1.05h2" fill="#5e5e5e"/><use xlink:href="#q" transform="matrix(1,0,0,1,103.25925925925925,1168.0100912019366) translate(0 14.222222222222223)"/><path d="M121 1497.5h-2v-15.87h2m0-21.33h-2v-60.17h2" fill="#5e5e5e"/><path d="M120.68 1399.18l.32-.08v1.05h-2v-1.1M121 1498.5h-2v-1.03h2" fill="#5e5e5e"/><use xlink:href="#h" transform="matrix(1,0,0,1,103.25925925925927,1460.296510942938) translate(0 14.222222222222223)"/><path d="M-1240 1506c0-3.3 2.7-6 6-6h228c3.3 0 6 2.7 6 6v108c0 3.3-2.7 6-6 6h-228c-3.3 0-6-2.7-6-6z" stroke="#5e5e5e" stroke-width="3" fill="#fff"/><use xlink:href="#r" transform="matrix(1,0,0,1,-1235,1505) translate(86.66666666666667 59.02777777777778)"/><path d="M-484.92 1493.44c2.72-1.9 7.12-1.9 9.84 0l90.16 63.12c2.72 1.9 2.72 4.98 0 6.88l-90.16 63.12c-2.72 1.9-7.12 1.9-9.84 0l-90.16-63.12c-2.72-1.9-2.72-4.98 0-6.88z" stroke="#5e5e5e" stroke-width="3" fill="#fff"/><use xlink:href="#s" transform="matrix(1,0,0,1,-580,1490) translate(69.75808641975308 52.77777777777778)"/><use xlink:href="#t" transform="matrix(1,0,0,1,-580,1490) translate(124.07907407407407 52.77777777777778)"/><use xlink:href="#u" transform="matrix(1,0,0,1,-580,1490) translate(60.5296913580247 79.44444444444446)"/><path d="M-74.47 1561H-380.5v-2h306.03m71.97 2h-35.53v-2H-2.5" fill="#5e5e5e"/><path d="M-380.48 1561h-.97l.07-.13-.26-1.87h1.16M-1.5 1561h-1.03v-2h1.03" fill="#5e5e5e"/><use xlink:href="#g" transform="matrix(1,0,0,1,-74.47113056941049,1549.3333333333333) translate(0 14.222222222222223)"/><path d="M-971.53 1561h-25.97v-2h25.97m392.03 2h-355.58v-2h355.58" fill="#5e5e5e"/><path d="M-578.62 1559.13l.26 1.87h-1.16v-2h.97M-997.47 1561h-1.03v-2h1.03" fill="#5e5e5e"/><use xlink:href="#g" transform="matrix(1,0,0,1,-971.5266196821459,1549.3333333333333) translate(0 14.222222222222223)"/><path d="M-1200 1100c0 33.14-35.82 60-80 60s-80-26.86-80-60 35.82-60 80-60 80 26.86 80 60z" stroke="#5e5e5e" stroke-width="3" fill="#fff"/><use xlink:href="#v" transform="matrix(1,0,0,1,-1360,1040) translate(53.52351851851852 62.77777777777778)"/><path d="M-1420 1120c0 33.14-35.82 60-80 60s-80-26.86-80-60 35.82-60 80-60 80 26.86 80 60z" stroke="#5e5e5e" stroke-width="3" fill="#fff"/><use xlink:href="#w" transform="matrix(1,0,0,1,-1580,1060) translate(46.70253086419753 62.77777777777778)"/><path d="M-1580 1280c0 33.14-35.82 60-80 60s-80-26.86-80-60 35.82-60 80-60 80 26.86 80 60z" stroke="#5e5e5e" stroke-width="3" fill="#fff"/><use xlink:href="#x" transform="matrix(1,0,0,1,-1740,1220) translate(64.01734567901235 62.77777777777778)"/><path d="M-1660 1480c0 33.14-35.82 60-80 60s-80-26.86-80-60 35.82-60 80-60 80 26.86 80 60z" stroke="#5e5e5e" stroke-width="3" fill="#fff"/><use xlink:href="#y" transform="matrix(1,0,0,1,-1820,1420) translate(56.54820987654322 62.77777777777778)"/><path d="M-980 1180c0 33.14-35.82 60-80 60s-80-26.86-80-60 35.82-60 80-60 80 26.86 80 60z" stroke="#5e5e5e" stroke-width="3" fill="#fff"/><use xlink:href="#z" transform="matrix(1,0,0,1,-1140,1120) translate(62.10376543209876 62.77777777777778)"/><path d="M-1520 1806c0-3.3 2.7-6 6-6h228c3.3 0 6 2.7 6 6v108c0 3.3-2.7 6-6 6h-228c-3.3 0-6-2.7-6-6z" stroke="#5e5e5e" stroke-width="3" fill="#fff"/><use xlink:href="#A" transform="matrix(1,0,0,1,-1515,1805) translate(92.1604938271605 59.02777777777778)"/><path d="M-980 1806c0-3.3 2.7-6 6-6h228c3.3 0 6 2.7 6 6v108c0 3.3-2.7 6-6 6h-228c-3.3 0-6-2.7-6-6z" stroke="#5e5e5e" stroke-width="3" fill="#fff"/><use xlink:href="#B" transform="matrix(1,0,0,1,-975,1805) translate(77.37654320987656 59.02777777777778)"/><path d="M-1280.02 1162.5l-.46 21.2-1.75 27.4-6.36 57.3-6.34 55.95-1.3 20.15-.32 14.9.25 12.24.65 10.6 1 9.46 1.27 8.65 1.53 8.03 1.78 7.57 2 7.22 2.26 6.93 2.5 6.73 2.76 6.57 3.04 6.48 3.36 6.42 3.7 6.4 4.08 6.44 4.52 6.5 5.02 6.6 5.6 6.78 6.28 6.97 4.53 4.66" stroke="#5e5e5e" stroke-width="2" fill="none"/><path d="M-1280.02 1161.5h1.02l-.02 1.05-2-.04.02-1.03M-1239 1500.67l-1.42 1.42-.72-.76 1.43-1.4" fill="#5e5e5e"/><path d="M-1490.47 1182.05l1.56 12.8 2.08 12.7 2.47 11.87 2.82 11.17 3.15 10.58 3.48 10.13 3.83 9.8 4.2 9.5 4.58 9.35 5.06 9.27 5.57 9.28 6.2 9.42 7 9.7 7.98 10.15 9.37 10.92 11.36 12.17 14.72 14.5 22.33 20.2 117.46 100.7 14.83 14.4" stroke="#5e5e5e" stroke-width="2" fill="none"/><path d="M-1489.47 1181.96l-2 .24-.12-1.04 2-.2M-1239 1500.67l-1.42 1.42-.72-.72 1.4-1.43" fill="#5e5e5e"/><path d="M-1115.96 1225.93l-8.2 11.6-12.24 15.86-20.78 24.63-66.47 75.57-10.54 13.64-7.3 10.32-5.43 8.43-4.22 7.17-3.34 6.28-2.68 5.6-2.17 5.07-1.77 4.64-1.43 4.3-1.16 4.02-.92 3.77-.7 3.6-.54 3.4-.37 3.28-.22 3.16-.1 3.05.05 3 .16 2.9.3 2.88.38 2.83.52 2.8.63 2.8.75 2.8.9 2.82 1.02 2.83 1.2 2.87 1.33 2.9 1.53 3 1.73 3.03 1.96 3.14 2.22 3.25 2.53 3.36 2.87 3.53 3.3 3.7 2.76 2.86" stroke="#5e5e5e" stroke-width="2" fill="none"/><path d="M-1114.55 1225.67l-.6.86-1.64-1.16.6-.82M-1239 1500.67l-1.42 1.42-.72-.76 1.44-1.4" fill="#5e5e5e"/><path d="M-1587.5 1309.9l14.63 10.8 15.64 10.6 16.18 9.97 17.22 9.65 19.15 9.7 23.2 10.54 39.2 15.75 73.15 28.5 21.06 9.57 16.9 8.55 14.8 8.3 13.63 8.4 12.9 8.72 12.48 9.23 12.3 9.9 12.27 10.8 12.38 11.8" stroke="#5e5e5e" stroke-width="2" fill="none"/><path d="M-1586.9 1309.1l-1.18 1.6-.84-.6.54-.7.63-.93M-1239 1500.67l-1.42 1.42-.72-.74 1.4-1.4" fill="#5e5e5e"/><path d="M-1657.5 1479.98l17.82-.38 20.75-1.3 24-2.55 30.7-4.58 139.28-25.92 17.22-1.83 13.97-.9 11.98-.24 10.63.22 9.64.6 8.9.93 8.34 1.23 7.9 1.5 7.53 1.77 7.26 2.03 7.06 2.3 6.9 2.56 6.8 2.86 6.72 3.17 6.7 3.5 6.72 3.88 6.78 4.3 6.86 4.77 7 5.32 7.17 5.93 7.4 6.67 5.02 4.86" stroke="#5e5e5e" stroke-width="2" fill="none"/><path d="M-1657.45 1480.98l-1.08.02.03-.98v-.43l-.02-.6 1.03-.02M-1239 1500.67l-1.42 1.42-.72-.72 1.4-1.43" fill="#5e5e5e"/><path d="M-1399.15 1797.97l263.5-166.58" stroke="#5e5e5e" stroke-width="2" fill="none"/><path d="M-1398.8 1798.5h-3.07l2.2-1.4" fill="#5e5e5e"/><path d="M-1122.74 1623.23l-9.58 11.54-4.95-7.84z" stroke="#5e5e5e" stroke-width="2" fill="#5e5e5e"/><path d="M-860.83 1797.94l-243.88-166.03" stroke="#5e5e5e" stroke-width="2" fill="none"/><path d="M-858.22 1798.5h-3.02l.95-1.4" fill="#5e5e5e"/><path d="M-1117.32 1623.32l14.4 4.2-5.22 7.66z" stroke="#5e5e5e" stroke-width="2" fill="#5e5e5e"/><path d="M-860 1922.5v55" stroke="#5e5e5e" stroke-width="2" fill="none"/><path d="M-859 1922.53h-2v-1.03h2M-859 1978.53l-.98-.03H-861v-1.03h2" fill="#5e5e5e"/><path d="M-780 2040c0 33.14-35.82 60-80 60s-80-26.86-80-60 35.82-60 80-60 80 26.86 80 60z" stroke="#5e5e5e" stroke-width="3" fill="#fff"/><use xlink:href="#C" transform="matrix(1,0,0,1,-940,1980) translate(51.023518518518514 62.77777777777778)"/><path d="M-660 986c0-3.3 2.7-6 6-6h228c3.3 0 6 2.7 6 6v108c0 3.3-2.7 6-6 6h-228c-3.3 0-6-2.7-6-6z" stroke="#5e5e5e" stroke-width="3" fill="#fff"/><use xlink:href="#D" transform="matrix(1,0,0,1,-655,985) translate(86.01851851851852 59.02777777777778)"/><path d="M-824.52 1243.95c2.5-2.18 6.54-2.18 9.04 0l70.96 62.1c2.5 2.18 2.5 5.72 0 7.9l-70.96 62.1c-2.5 2.18-6.54 2.18-9.04 0l-70.96-62.1c-2.5-2.18-2.5-5.72 0-7.9z" stroke="#5e5e5e" stroke-width="3" fill="#fff"/><use xlink:href="#E" transform="matrix(1,0,0,1,-900,1240) translate(28.801296296296282 72.78777777777778)"/><path d="M-775.24 1276.16l-1.2-1.6 184.27-135.85h3.37m48.6-35.8l-19.66 14.48h-3.37l21.83-16.1" fill="#5e5e5e"/><path d="M-540.23 1102.9l-1.04-1.4h2.96M-775.22 1276.14l-.65.48-1.54-1.35 1-.74" fill="#5e5e5e"/><use xlink:href="#g" transform="matrix(1,0,0,1,-594.2348185206328,1117.3810062243915) translate(0 14.222222222222223)"/><path d="M-1072.83 1498.73l-1.17-1.62 23.88-17h3.45m185.7-132.36l-155.77 111h-3.45l158.06-112.63" fill="#5e5e5e"/><path d="M-859.97 1347.02l-1.03.73-1.16-1.63.64-.45M-1072.97 1498.5h-2.98l1.98-1.4" fill="#5e5e5e"/><use xlink:href="#h" transform="matrix(1,0,0,1,-1050.1706171979301,1458.7547880252177) translate(0 14.222222222222223)"/><path d="M-617.82 977.5l-.04-2.28-.2-3.14-.32-3.04-.44-2.94-.54-2.86-.66-2.8-.77-2.76-.87-2.72-1-2.7-1.13-2.68-1.27-2.7-1.4-2.7-1.6-2.7-1.74-2.78-1.98-2.83-2.2-2.9-2.5-3.02-2.83-3.14-3.25-3.3-3.75-3.52-4.4-3.8-5.32-4.2-6.6-4.78-8.67-5.75-13.1-7.92-62.1-34.98-8.7-5.75-6.58-4.78-5.3-4.2-4.4-3.8-3.77-3.52-3.24-3.3-2.8-3.15-2.5-3-2.2-2.92-1.98-2.83-1.76-2.77-1.58-2.72-1.4-2.7-1.27-2.68-1.12-2.68-1-2.7-.9-2.72-.76-2.75-.65-2.8-.55-2.87-.44-2.94-.3-3.04-.2-3.14-.06-2.28" stroke="#5e5e5e" stroke-width="2" fill="none"/><path d="M-616.8 978.5h-2l-.02-1 2-.05M-800.02 781.5h1.02v1.03h-2v-1.06" fill="#5e5e5e"/><path d="M-720 720c0 33.14-35.82 60-80 60s-80-26.86-80-60 35.82-60 80-60 80 26.86 80 60z" stroke="#5e5e5e" stroke-width="3" fill="#fff"/><use xlink:href="#m" transform="matrix(1,0,0,1,-880,660) translate(47.967962962962964 62.77777777777778)"/><path d="M-617.78 977.5l.44-22.05 1.06-17.08 1.5-14.24 2.07-14.07 9.7-54.2 1.5-14.23 1.05-17.08.43-22.05" stroke="#5e5e5e" stroke-width="2" fill="none"/><path d="M-616.78 977.5l-.02 1h-2l.02-1.05M-600.02 801.5h1.02v1.03h-2v-1.06" fill="#5e5e5e"/><path d="M-520 740c0 33.14-35.82 60-80 60s-80-26.86-80-60 35.82-60 80-60 80 26.86 80 60z" stroke="#5e5e5e" stroke-width="3" fill="#fff"/><use xlink:href="#F" transform="matrix(1,0,0,1,-680,680) translate(66.48648148148149 62.77777777777778)"/><path d="M-264.52 703.95c2.5-2.18 6.54-2.18 9.04 0l70.96 62.1c2.5 2.18 2.5 5.72 0 7.9l-70.96 62.1c-2.5 2.18-6.54 2.18-9.04 0l-70.96-62.1c-2.5-2.18-2.5-5.72 0-7.9z" stroke="#5e5e5e" stroke-width="3" fill="#fff"/><use xlink:href="#G" transform="matrix(1,0,0,1,-340,700) translate(28.18401234567902 72.78777777777778)"/><path d="M-224 728.46l-1.22-1.6L-49.9 594h3.3M-.7 559.2l-17.73 13.45h-3.3l19.82-15.04" fill="#5e5e5e"/><path d="M-224 728.45l-.64.5-1.54-1.35.98-.75M-.52 557.8l.7.72-.92.7-1.2-1.6 1.13-.86" fill="#5e5e5e"/><use xlink:href="#h" transform="matrix(1,0,0,1,-50.91788211539743,572.6482559768996) translate(0 14.222222222222223)"/><path d="M-505.2 978.56l-1.34-1.47 34.74-31.76h2.97m159.1-145.4L-445.5 924.02h-2.95l137.37-125.53" fill="#5e5e5e"/><path d="M-308.9 799.2l-.85.77-1.35-1.48.68-.63M-505.2 978.5h-2.88l1.56-1.43" fill="#5e5e5e"/><use xlink:href="#h" transform="matrix(1,0,0,1,-475.383833466326,924.009282632401) translate(0 14.222222222222223)"/><path d="M257.7 1561h-15.2v-2h15.2m442.42 2H294.15v-2h405.97" fill="#5e5e5e"/><path d="M242.53 1561h-1.03v-2h1.03M701.1 1559.93l.24 1.07h-1.24v-2h1.23" fill="#5e5e5e"/><use xlink:href="#g" transform="matrix(1,0,0,1,257.70817254145186,1549.3333333333333) translate(0 14.222222222222223)"/><path d="M775.48 1493.95c2.5-2.18 6.54-2.18 9.04 0l70.96 62.1c2.5 2.18 2.5 5.72 0 7.9l-70.96 62.1c-2.5 2.18-6.54 2.18-9.04 0l-70.96-62.1c-2.5-2.18-2.5-5.72 0-7.9z" stroke="#5e5e5e" stroke-width="3" fill="#fff"/><use xlink:href="#H" transform="matrix(1,0,0,1,700,1490) translate(58.430925925925926 52.77777777777778)"/><use xlink:href="#I" transform="matrix(1,0,0,1,700,1490) translate(38.02969135802469 79.44444444444446)"/><path d="M1139.08 1559h-279.2v-2h279.2m58.42 2h-24.93v-2h24.93M1139.08 1563h-279.2v-2h279.2m58.42 2h-24.93v-2h24.93" fill="#5e5e5e"/><path d="M859.9 1559h-1.24l-.36-1.72-.22-.28h1.82M859.9 1563h-1.8l.14-.16.43-1.84h1.23M1198.5 1559h-1.03v-2h1.03M1198.5 1563h-1.03v-2h1.03" fill="#5e5e5e"/><use xlink:href="#h" transform="matrix(1,0,0,1,1139.0837040768704,1549.3333333333333) translate(0 14.222222222222223)"/><path d="M1442.5 1518.2l4.17-.07 4.7-.3 4.3-.45 3.98-.6 3.68-.7 3.44-.8 3.23-.9 3.04-.98 2.9-1.08 2.74-1.15 2.63-1.24 2.54-1.32 2.44-1.4 2.37-1.5 2.3-1.6 2.25-1.7 2.2-1.83 2.17-1.96 2.14-2.1 2.14-2.25 2.12-2.45 2.1-2.68 2.14-2.93 2.15-3.24 2.17-3.6 2.22-4.04 2.3-4.6 2.36-5.33 2.48-6.3 2.67-7.67 2.95-9.82 3.54-13.86 6.17-29.68 11.22-56 4.4-17.2 3.9-12.93 3.67-10.58 3.56-9.03 3.5-7.9 3.5-7.05 3.5-6.37 3.53-5.82 3.55-5.35 3.6-4.97 3.67-4.63 3.75-4.34 3.84-4.1 3.95-3.86 4.08-3.67 3.93-3.25" stroke="#5e5e5e" stroke-width="2" fill="none"/><path d="M1442.55 1519.2l-1.05.03v-2l1-.02M1608.66 1229.8l1.1 1.38-.8.63-1.25-1.56.83-.65" fill="#5e5e5e"/><path d="M1760 1200c0 33.14-35.82 60-80 60s-80-26.86-80-60 35.82-60 80-60 80 26.86 80 60z" stroke="#5e5e5e" stroke-width="3" fill="#fff"/><use xlink:href="#J" transform="matrix(1,0,0,1,1600,1140) translate(41.455617283950616 62.77777777777778)"/><path d="M1442.5 1518.2l7.16-.14 7.7-.48 7.33-.77 7-1.02 6.73-1.3 6.52-1.52 6.34-1.77 6.18-2.02 6.1-2.27 6.02-2.52 6-2.82 6-3.14 6.07-3.5 6.15-3.9 6.32-4.4 6.55-4.97 6.87-5.7 7.36-6.63 8.07-7.92 9.25-9.86 11.5-13.35 19.47-24.76 41.04-53.4 11.5-13.35 9.24-9.86 8.07-7.92 7.36-6.64 6.88-5.7 6.56-4.97 6.32-4.38 6.15-3.9 6.06-3.5 6-3.15 6-2.82 6.02-2.53 6.1-2.27 6.2-2 6.33-1.78 6.52-1.53 6.73-1.28 7-1.04 7.34-.77 7.7-.48 7.16-.15" stroke="#5e5e5e" stroke-width="2" fill="none"/><path d="M1442.55 1519.2l-1.05.03v-2l1-.02M1798.5 1279.98v.43l.02.6h-1.05v-2h1.06" fill="#5e5e5e"/><path d="M1960 1280c0 33.14-35.82 60-80 60s-80-26.86-80-60 35.82-60 80-60 80 26.86 80 60z" stroke="#5e5e5e" stroke-width="3" fill="#fff"/><use xlink:href="#K" transform="matrix(1,0,0,1,1800,1220) translate(34.017345679012344 62.77777777777778)"/><path d="M1442.5 1518.2l15.34-.3 13.96-.87 12.22-1.28 10.97-1.62 10.08-1.92 9.55-2.23 9.36-2.6 9.6-3.14 10.82-4.03 16.5-7 34.66-15.17 10.8-4.03 9.63-3.12 9.37-2.62 9.55-2.24 10.1-1.92 10.96-1.62 12.22-1.28 13.96-.87 15.34-.3" stroke="#5e5e5e" stroke-width="2" fill="none"/><path d="M1442.55 1519.2l-1.05.03v-2l1-.02M1698.5 1459.98v.43l.02.6h-1.05v-2h1.06" fill="#5e5e5e"/><path d="M1860 1460c0 33.14-35.82 60-80 60s-80-26.86-80-60 35.82-60 80-60 80 26.86 80 60z" stroke="#5e5e5e" stroke-width="3" fill="#fff"/><use xlink:href="#L" transform="matrix(1,0,0,1,1700,1400) translate(49.20253086419753 62.77777777777778)"/><path d="M1200 1506c0-3.3 2.7-6 6-6h228c3.3 0 6 2.7 6 6v108c0 3.3-2.7 6-6 6h-228c-3.3 0-6-2.7-6-6z" stroke="#5e5e5e" stroke-width="3" fill="#fff"/><path d="M1206 1512c0-3.3 2.7-6 6-6h216c3.3 0 6 2.7 6 6v96c0 3.3-2.7 6-6 6h-216c-3.3 0-6-2.7-6-6z" stroke="#5e5e5e" stroke-width="3" fill="#fff"/><path d="M1206 1512c0-3.3 2.7-6 6-6h216c3.3 0 6 2.7 6 6v96c0 3.3-2.7 6-6 6h-216c-3.3 0-6-2.7-6-6z" fill="none"/><use xlink:href="#M" transform="matrix(1,0,0,1,1200,1500) translate(70.71487654320987 62.77777777777778)"/><path d="M275.48 2003.95c2.5-2.18 6.54-2.18 9.04 0l70.96 62.1c2.5 2.18 2.5 5.72 0 7.9l-70.96 62.1c-2.5 2.18-6.54 2.18-9.04 0l-70.96-62.1c-2.5-2.18-2.5-5.72 0-7.9z" stroke="#5e5e5e" stroke-width="3" fill="#fff"/><use xlink:href="#N" transform="matrix(1,0,0,1,200,2000) translate(28.832160493827157 72.78777777777778)"/><path d="M243.23 2111.16l-1.32 1.5-7.13 7.6-6.96 6.8-6.8 6.15-6.73 5.58-6.67 5.06-6.66 4.63-6.7 4.25-6.78 3.92-6.9 3.6-7.1 3.35-7.35 3.08-7.67 2.85-8.1 2.63-8.65 2.42-9.38 2.2-10.35 1.96-11.7 1.73-13.76 1.43-17.17 1.07-95.5-1.37v-2l95.46 1.37 17.03-1.06 13.66-1.42 11.62-1.7 10.26-1.96 9.3-2.18 8.57-2.4 8.02-2.6 7.6-2.82 7.27-3.06 7.02-3.3 6.84-3.58 6.7-3.87 6.63-4.2 6.6-4.58 6.6-5 6.66-5.52 6.74-6.08 6.9-6.76 7.1-7.56 1.3-1.47m-291.4 69.3v2l-7.85-.12.02-2" fill="#5e5e5e"/><path d="M-57.46 2179l-.03 2h-1v-2M243.9 2110.4l-.68.78-1.5-1.33.68-.76" fill="#5e5e5e"/><use xlink:href="#h" transform="matrix(1,0,0,1,-49.64680083491861,2169.698339797252) translate(0 14.222222222222223)"/><path d="M161.72 1668.35l1.9 12.83 2.27 11.92 2.62 11.24 3 10.75 3.4 10.43 3.84 10.34 4.42 10.5 5.2 11.07 6.46 12.33 40.77 65.93 9.23 15.93 6.5 12.42 5.25 11.13 4.45 10.58 3.88 10.43 3.43 10.5 3.02 10.83 2.65 11.32 2.3 12 1.9 12.93 1.47 14.07.97 15.57.34 16.43-2 .04-.34-16.4-.97-15.48-1.46-14-1.88-12.83-2.28-11.93-2.63-11.24-3-10.74-3.38-10.46-3.85-10.34-4.42-10.5-5.2-11.06-6.47-12.35-9.2-15.87-40.77-65.97-6.5-12.43-5.25-11.13-4.45-10.6-3.88-10.4-3.4-10.54-3.04-10.82-2.65-11.32-2.3-12-1.9-12.92-.9-8.7h2m-1.55-21.33h-2l-.33-16.05 2-.04" fill="#5e5e5e"/><path d="M281 2000.94l-1.68-.12-.32.08-.02-1.04 2-.04M158.93 1622.53h-2v-1.03h2" fill="#5e5e5e"/><use xlink:href="#O" transform="matrix(1,0,0,1,142.19402943793722,1638.5721399124714) translate(0 14.222222222222223)"/><path d="M316 2111.82l3 3.26 4.1 4.03 4.62 4.17 5.37 4.4 6.55 4.87 8.96 6.02 40.2 24.86 4.86 3.6 3.75 3.07 3.07 2.74 2.6 2.55 2.22 2.42 1.95 2.33 1.74 2.28 1.55 2.25 1.4 2.24 1.27 2.25 1.14 2.28 1.04 2.33.93 2.38.84 2.47.73 2.58.64 2.7.54 2.86.43 3.04.3 3.26.18 3.54v.9" stroke="#5e5e5e" stroke-width="2" fill="none"/><path d="M316.76 2111.16l-1.47 1.36-.73-.78 1.5-1.3M421 2218.53l-.98-.03H419v-1l2-.04" fill="#5e5e5e"/><path d="M500 2280c0 33.14-35.82 60-80 60s-80-26.86-80-60 35.82-60 80-60 80 26.86 80 60z" stroke="#5e5e5e" stroke-width="3" fill="#fff"/><g><use xlink:href="#P" transform="matrix(1,0,0,1,340,2220) translate(27.65932098765432 62.77777777777778)"/></g><defs><path fill="#333" d="M160-131c35 5 61 23 61 61C221 17 115-2 30 0v-248c76 3 177-17 177 60 0 33-19 50-47 57zm-97-11c50-1 110 9 110-42 0-47-63-36-110-37v79zm0 115c55-2 124 14 124-45 0-56-70-42-124-44v89" id="Q"/><path fill="#333" d="M114-163C36-179 61-72 57 0H25l-1-190h30c1 12-1 29 2 39 6-27 23-49 58-41v29" id="R"/><path fill="#333" d="M100-194c62-1 85 37 85 99 1 63-27 99-86 99S16-35 15-95c0-66 28-99 85-99zM99-20c44 1 53-31 53-75 0-43-8-75-51-75s-53 32-53 75 10 74 51 75" id="S"/><path fill="#333" d="M143 0L79-87 56-68V0H24v-261h32v163l83-92h37l-77 82L181 0h-38" id="T"/><path fill="#333" d="M100-194c63 0 86 42 84 106H49c0 40 14 67 53 68 26 1 43-12 49-29l28 8c-11 28-37 45-77 45C44 4 14-33 15-96c1-61 26-98 85-98zm52 81c6-60-76-77-97-28-3 7-6 17-6 28h103" id="U"/><g id="a"><use transform="matrix(0.06172839506172839,0,0,0.06172839506172839,0,0)" xlink:href="#Q"/><use transform="matrix(0.06172839506172839,0,0,0.06172839506172839,14.814814814814813,0)" xlink:href="#R"/><use transform="matrix(0.06172839506172839,0,0,0.06172839506172839,22.160493827160494,0)" xlink:href="#S"/><use transform="matrix(0.06172839506172839,0,0,0.06172839506172839,34.50617283950617,0)" xlink:href="#T"/><use transform="matrix(0.06172839506172839,0,0,0.06172839506172839,45.61728395061728,0)" xlink:href="#U"/><use transform="matrix(0.06172839506172839,0,0,0.06172839506172839,57.962962962962955,0)" xlink:href="#R"/></g><path fill="#333" d="M190 0L58-211 59 0H30v-248h39L202-35l-2-213h31V0h-41" id="V"/><path fill="#333" d="M205 0l-28-72H64L36 0H1l101-248h38L239 0h-34zm-38-99l-47-123c-12 45-31 82-46 123h93" id="W"/><path fill="#333" d="M240 0l2-218c-23 76-54 145-80 218h-23L58-218 59 0H30v-248h44l77 211c21-75 51-140 76-211h43V0h-30" id="X"/><path fill="#333" d="M30 0v-248h187v28H63v79h144v27H63v87h162V0H30" id="Y"/><g id="b"><use transform="matrix(0.06172839506172839,0,0,0.06172839506172839,0,0)" xlink:href="#V"/><use transform="matrix(0.06172839506172839,0,0,0.06172839506172839,15.987654320987653,0)" xlink:href="#W"/><use transform="matrix(0.06172839506172839,0,0,0.06172839506172839,30.80246913580247,0)" xlink:href="#X"/><use transform="matrix(0.06172839506172839,0,0,0.06172839506172839,49.25925925925925,0)" xlink:href="#Y"/><path fill="#333" d="M-1.1 1.54h66.3v1.63H-1.1z"/></g><path fill="#333" d="M194 0L95-120 63-95V0H30v-248h33v124l119-124h40L117-140 236 0h-42" id="Z"/><path fill="#333" d="M137-103V0h-34v-103L8-248h37l75 118 75-118h37" id="aa"/><g id="c"><use transform="matrix(0.06172839506172839,0,0,0.06172839506172839,0,0)" xlink:href="#Z"/><use transform="matrix(0.06172839506172839,0,0,0.06172839506172839,14.814814814814813,0)" xlink:href="#Y"/><use transform="matrix(0.06172839506172839,0,0,0.06172839506172839,29.629629629629626,0)" xlink:href="#aa"/></g><path fill="#333" d="M232-93c-1 65-40 97-104 97C67 4 28-28 28-90v-158h33c8 89-33 224 67 224 102 0 64-133 71-224h33v155" id="ab"/><path fill="#333" d="M233-177c-1 41-23 64-60 70L243 0h-38l-65-103H63V0H30v-248c88 3 205-21 203 71zM63-129c60-2 137 13 137-47 0-61-80-42-137-45v92" id="ac"/><path fill="#333" d="M30 0v-248h33v221h125V0H30" id="ad"/><g id="d"><use transform="matrix(0.06172839506172839,0,0,0.06172839506172839,0,0)" xlink:href="#ab"/><use transform="matrix(0.06172839506172839,0,0,0.06172839506172839,15.987654320987653,0)" xlink:href="#ac"/><use transform="matrix(0.06172839506172839,0,0,0.06172839506172839,31.975308641975307,0)" xlink:href="#ad"/></g><path fill="#333" d="M30-248c118-7 216 8 213 122C240-48 200 0 122 0H30v-248zM63-27c89 8 146-16 146-99s-60-101-146-95v194" id="ae"/><path fill="#333" d="M115-194c55 1 70 41 70 98S169 2 115 4C84 4 66-9 55-30l1 105H24l-1-265h31l2 30c10-21 28-34 59-34zm-8 174c40 0 45-34 45-75s-6-73-45-74c-42 0-51 32-51 76 0 43 10 73 51 73" id="af"/><path fill="#333" d="M59-47c-2 24 18 29 38 22v24C64 9 27 4 27-40v-127H5v-23h24l9-43h21v43h35v23H59v120" id="ag"/><g id="e"><use transform="matrix(0.06172839506172839,0,0,0.06172839506172839,0,0)" xlink:href="#ae"/><use transform="matrix(0.06172839506172839,0,0,0.06172839506172839,15.987654320987653,0)" xlink:href="#U"/><use transform="matrix(0.06172839506172839,0,0,0.06172839506172839,28.333333333333332,0)" xlink:href="#af"/><use transform="matrix(0.06172839506172839,0,0,0.06172839506172839,40.67901234567901,0)" xlink:href="#S"/><use transform="matrix(0.06172839506172839,0,0,0.06172839506172839,53.02469135802469,0)" xlink:href="#ag"/></g><path fill="#333" d="M115-194c53 0 69 39 70 98 0 66-23 100-70 100C84 3 66-7 56-30L54 0H23l1-261h32v101c10-23 28-34 59-34zm-8 174c40 0 45-34 45-75 0-40-5-75-45-74-42 0-51 32-51 76 0 43 10 73 51 73" id="ah"/><path fill="#333" d="M135-143c-3-34-86-38-87 0 15 53 115 12 119 90S17 21 10-45l28-5c4 36 97 45 98 0-10-56-113-15-118-90-4-57 82-63 122-42 12 7 21 19 24 35" id="ai"/><path fill="#333" d="M24-231v-30h32v30H24zM24 0v-190h32V0H24" id="aj"/><path fill="#333" d="M9 0v-24l116-142H16v-24h144v24L44-24h123V0H9" id="ak"/><g id="f"><use transform="matrix(0.06172839506172839,0,0,0.06172839506172839,0,0)" xlink:href="#ah"/><use transform="matrix(0.06172839506172839,0,0,0.06172839506172839,12.345679012345679,0)" xlink:href="#U"/><use transform="matrix(0.06172839506172839,0,0,0.06172839506172839,24.691358024691358,0)" xlink:href="#ai"/><use transform="matrix(0.06172839506172839,0,0,0.06172839506172839,35.80246913580247,0)" xlink:href="#aj"/><use transform="matrix(0.06172839506172839,0,0,0.06172839506172839,40.67901234567901,0)" xlink:href="#ag"/><use transform="matrix(0.06172839506172839,0,0,0.06172839506172839,46.851851851851855,0)" xlink:href="#ak"/><use transform="matrix(0.06172839506172839,0,0,0.06172839506172839,57.96296296296296,0)" xlink:href="#ag"/></g><path fill="#333" d="M67-93c0 74 22 123 53 168H70C40 30 18-18 18-93s22-123 52-168h50c-32 44-53 94-53 168" id="al"/><path fill="#333" d="M23 0v-37h61v-169l-59 37v-38l62-41h46v211h57V0H23" id="am"/><path fill="#333" d="M76-54c-1 42 2 86-19 110H24C36 42 46 24 48 0H25v-54h51" id="an"/><path fill="#333" d="M102-93c0 74-22 123-52 168H0C30 29 54-18 53-93c0-74-22-123-53-168h50c30 45 52 94 52 168" id="ao"/><g id="g"><use transform="matrix(0.04938271604938272,0,0,0.04938271604938272,0,0)" xlink:href="#al"/><use transform="matrix(0.04938271604938272,0,0,0.04938271604938272,5.8765432098765435,0)" xlink:href="#am"/><use transform="matrix(0.04938271604938272,0,0,0.04938271604938272,15.753086419753087,0)" xlink:href="#an"/><use transform="matrix(0.04938271604938272,0,0,0.04938271604938272,20.69135802469136,0)" xlink:href="#am"/><use transform="matrix(0.04938271604938272,0,0,0.04938271604938272,30.567901234567906,0)" xlink:href="#ao"/></g><path fill="#333" d="M101-251c68 0 84 54 84 127C185-50 166 4 99 4S15-52 14-124c-1-75 17-127 87-127zm-1 216c37-5 36-46 36-89s4-89-36-89c-39 0-36 45-36 89 0 43-3 85 36 89" id="ap"/><path fill="#333" d="M86-200l42-18 12 35-44 11 32 37-32 21-26-44-26 44-32-21 33-37-44-11 12-35 42 18-3-48h38" id="aq"/><g id="h"><use transform="matrix(0.04938271604938272,0,0,0.04938271604938272,0,0)" xlink:href="#al"/><use transform="matrix(0.04938271604938272,0,0,0.04938271604938272,5.8765432098765435,0)" xlink:href="#ap"/><use transform="matrix(0.04938271604938272,0,0,0.04938271604938272,15.753086419753087,0)" xlink:href="#an"/><use transform="matrix(0.04938271604938272,0,0,0.04938271604938272,20.69135802469136,0)" xlink:href="#aq"/><use transform="matrix(0.04938271604938272,0,0,0.04938271604938272,27.604938271604947,0)" xlink:href="#ao"/></g><g id="i"><use transform="matrix(0.06172839506172839,0,0,0.06172839506172839,0,0)" xlink:href="#W"/><use transform="matrix(0.06172839506172839,0,0,0.06172839506172839,14.814814814814813,0)" xlink:href="#T"/><use transform="matrix(0.06172839506172839,0,0,0.06172839506172839,25.925925925925924,0)" xlink:href="#ag"/><use transform="matrix(0.06172839506172839,0,0,0.06172839506172839,32.098765432098766,0)" xlink:href="#aj"/><use transform="matrix(0.06172839506172839,0,0,0.06172839506172839,36.97530864197531,0)" xlink:href="#U"/></g><path fill="#333" d="M117-194c89-4 53 116 60 194h-32v-121c0-31-8-49-39-48C34-167 62-67 57 0H25l-1-190h30c1 10-1 24 2 32 11-22 29-35 61-36" id="ar"/><path fill="#333" d="M24 0v-261h32V0H24" id="as"/><path fill="#333" d="M106-169C34-169 62-67 57 0H25v-261h32l-1 103c12-21 28-36 61-36 89 0 53 116 60 194h-32v-121c2-32-8-49-39-48" id="at"/><g id="j"><use transform="matrix(0.06172839506172839,0,0,0.06172839506172839,0,0)" xlink:href="#W"/><use transform="matrix(0.06172839506172839,0,0,0.06172839506172839,14.814814814814813,0)" xlink:href="#ar"/><use transform="matrix(0.06172839506172839,0,0,0.06172839506172839,27.160493827160494,0)" xlink:href="#as"/><use transform="matrix(0.06172839506172839,0,0,0.06172839506172839,32.03703703703704,0)" xlink:href="#U"/><use transform="matrix(0.06172839506172839,0,0,0.06172839506172839,44.382716049382715,0)" xlink:href="#aj"/><use transform="matrix(0.06172839506172839,0,0,0.06172839506172839,49.25925925925926,0)" xlink:href="#at"/><use transform="matrix(0.06172839506172839,0,0,0.06172839506172839,61.60493827160494,0)" xlink:href="#U"/></g><path fill="#333" d="M63-220v92h138v28H63V0H30v-248h175v28H63" id="au"/><path fill="#333" d="M85-194c31 0 48 13 60 33l-1-100h32l1 261h-30c-2-10 0-23-3-31C134-8 116 4 85 4 32 4 16-35 15-94c0-66 23-100 70-100zm9 24c-40 0-46 34-46 75 0 40 6 74 45 74 42 0 51-32 51-76 0-42-9-74-50-73" id="av"/><g id="k"><use transform="matrix(0.06172839506172839,0,0,0.06172839506172839,0,0)" xlink:href="#au"/><use transform="matrix(0.06172839506172839,0,0,0.06172839506172839,13.518518518518517,0)" xlink:href="#S"/><use transform="matrix(0.06172839506172839,0,0,0.06172839506172839,25.864197530864196,0)" xlink:href="#ar"/><use transform="matrix(0.06172839506172839,0,0,0.06172839506172839,38.20987654320987,0)" xlink:href="#av"/></g><path fill="#333" d="M266 0h-40l-56-210L115 0H75L2-248h35L96-30l15-64 43-154h32l59 218 59-218h35" id="aw"/><path fill="#333" d="M141-36C126-15 110 5 73 4 37 3 15-17 15-53c-1-64 63-63 125-63 3-35-9-54-41-54-24 1-41 7-42 31l-33-3c5-37 33-52 76-52 45 0 72 20 72 64v82c-1 20 7 32 28 27v20c-31 9-61-2-59-35zM48-53c0 20 12 33 32 33 41-3 63-29 60-74-43 2-92-5-92 41" id="ax"/><g id="l"><use transform="matrix(0.06172839506172839,0,0,0.06172839506172839,0,0)" xlink:href="#aw"/><use transform="matrix(0.06172839506172839,0,0,0.06172839506172839,20.493827160493826,0)" xlink:href="#U"/><use transform="matrix(0.06172839506172839,0,0,0.06172839506172839,32.839506172839506,0)" xlink:href="#R"/><use transform="matrix(0.06172839506172839,0,0,0.06172839506172839,40.18518518518518,0)" xlink:href="#ag"/><use transform="matrix(0.06172839506172839,0,0,0.06172839506172839,46.358024691358025,0)" xlink:href="#af"/><use transform="matrix(0.06172839506172839,0,0,0.06172839506172839,58.7037037037037,0)" xlink:href="#ax"/><use transform="matrix(0.06172839506172839,0,0,0.06172839506172839,71.04938271604938,0)" xlink:href="#af"/><use transform="matrix(0.06172839506172839,0,0,0.06172839506172839,83.39506172839506,0)" xlink:href="#aj"/><use transform="matrix(0.06172839506172839,0,0,0.06172839506172839,88.27160493827161,0)" xlink:href="#U"/><use transform="matrix(0.06172839506172839,0,0,0.06172839506172839,100.61728395061729,0)" xlink:href="#R"/></g><g id="m"><use transform="matrix(0.06172839506172839,0,0,0.06172839506172839,0,0)" xlink:href="#V"/><use transform="matrix(0.06172839506172839,0,0,0.06172839506172839,15.987654320987653,0)" xlink:href="#W"/><use transform="matrix(0.06172839506172839,0,0,0.06172839506172839,30.80246913580247,0)" xlink:href="#X"/><use transform="matrix(0.06172839506172839,0,0,0.06172839506172839,49.25925925925925,0)" xlink:href="#Y"/></g><path fill="#333" d="M33 0v-248h34V0H33" id="ay"/><path fill="#333" d="M185-189c-5-48-123-54-124 2 14 75 158 14 163 119 3 78-121 87-175 55-17-10-28-26-33-46l33-7c5 56 141 63 141-1 0-78-155-14-162-118-5-82 145-84 179-34 5 7 8 16 11 25" id="az"/><g id="n"><use transform="matrix(0.06172839506172839,0,0,0.06172839506172839,0,0)" xlink:href="#ay"/><use transform="matrix(0.06172839506172839,0,0,0.06172839506172839,6.172839506172839,0)" xlink:href="#az"/><use transform="matrix(0.06172839506172839,0,0,0.06172839506172839,20.98765432098765,0)" xlink:href="#ay"/><use transform="matrix(0.06172839506172839,0,0,0.06172839506172839,27.16049382716049,0)" xlink:href="#V"/><path fill="#333" d="M-1.1 1.54h45.36v1.63H-1.1z"/></g><path fill="#333" d="M127-220V0H93v-220H8v-28h204v28h-85" id="aA"/><g id="o"><use transform="matrix(0.06172839506172839,0,0,0.06172839506172839,0,0)" xlink:href="#aA"/><use transform="matrix(0.06172839506172839,0,0,0.06172839506172839,13.518518518518517,0)" xlink:href="#Y"/><use transform="matrix(0.06172839506172839,0,0,0.06172839506172839,28.33333333333333,0)" xlink:href="#ac"/></g><path fill="#333" d="M177-190C167-65 218 103 67 71c-23-6-38-20-44-43l32-5c15 47 100 32 89-28v-30C133-14 115 1 83 1 29 1 15-40 15-95c0-56 16-97 71-98 29-1 48 16 59 35 1-10 0-23 2-32h30zM94-22c36 0 50-32 50-73 0-42-14-75-50-75-39 0-46 34-46 75s6 73 46 73" id="aB"/><g id="p"><use transform="matrix(0.06172839506172839,0,0,0.06172839506172839,0,0)" xlink:href="#as"/><use transform="matrix(0.06172839506172839,0,0,0.06172839506172839,4.876543209876543,0)" xlink:href="#ax"/><use transform="matrix(0.06172839506172839,0,0,0.06172839506172839,17.22222222222222,0)" xlink:href="#aB"/><use transform="matrix(0.06172839506172839,0,0,0.06172839506172839,29.5679012345679,0)" xlink:href="#U"/><use transform="matrix(0.06172839506172839,0,0,0.06172839506172839,41.913580246913575,0)" xlink:href="#R"/><use transform="matrix(0.06172839506172839,0,0,0.06172839506172839,49.25925925925925,0)" xlink:href="#ag"/></g><g id="q"><use transform="matrix(0.04938271604938272,0,0,0.04938271604938272,0,0)" xlink:href="#al"/><use transform="matrix(0.04938271604938272,0,0,0.04938271604938272,5.8765432098765435,0)" xlink:href="#am"/><use transform="matrix(0.04938271604938272,0,0,0.04938271604938272,15.753086419753087,0)" xlink:href="#an"/><use transform="matrix(0.04938271604938272,0,0,0.04938271604938272,20.69135802469136,0)" xlink:href="#aq"/><use transform="matrix(0.04938271604938272,0,0,0.04938271604938272,27.604938271604947,0)" xlink:href="#ao"/></g><path fill="#333" d="M140-251c81 0 123 46 123 126C263-46 219 4 140 4 59 4 17-45 17-125s42-126 123-126zm0 227c63 0 89-41 89-101s-29-99-89-99c-61 0-89 39-89 99S79-25 140-24" id="aC"/><g id="r"><use transform="matrix(0.06172839506172839,0,0,0.06172839506172839,0,0)" xlink:href="#aC"/><use transform="matrix(0.06172839506172839,0,0,0.06172839506172839,17.28395061728395,0)" xlink:href="#R"/><use transform="matrix(0.06172839506172839,0,0,0.06172839506172839,24.629629629629626,0)" xlink:href="#av"/><use transform="matrix(0.06172839506172839,0,0,0.06172839506172839,36.9753086419753,0)" xlink:href="#U"/><use transform="matrix(0.06172839506172839,0,0,0.06172839506172839,49.32098765432098,0)" xlink:href="#R"/></g><path fill="#333" d="M84 4C-5 8 30-112 23-190h32v120c0 31 7 50 39 49 72-2 45-101 50-169h31l1 190h-30c-1-10 1-25-2-33-11 22-28 36-60 37" id="aD"/><path fill="#333" d="M101-234c-31-9-42 10-38 44h38v23H63V0H32v-167H5v-23h27c-7-52 17-82 69-68v24" id="aE"/><g id="s"><use transform="matrix(0.06172839506172839,0,0,0.06172839506172839,0,0)" xlink:href="#T"/><use transform="matrix(0.06172839506172839,0,0,0.06172839506172839,11.11111111111111,0)" xlink:href="#ax"/><use transform="matrix(0.06172839506172839,0,0,0.06172839506172839,23.45679012345679,0)" xlink:href="#aD"/><use transform="matrix(0.06172839506172839,0,0,0.06172839506172839,35.80246913580247,0)" xlink:href="#aE"/><use transform="matrix(0.06172839506172839,0,0,0.06172839506172839,41.97530864197531,0)" xlink:href="#ag"/></g><path fill="#333" d="M0 4l72-265h28L28 4H0" id="aF"/><use transform="matrix(0.06172839506172839,0,0,0.06172839506172839,0,0)" xlink:href="#aF" id="t"/><path fill="#333" d="M108 0H70L1-190h34L89-25l56-165h34" id="aG"/><g id="u"><use transform="matrix(0.06172839506172839,0,0,0.06172839506172839,0,0)" xlink:href="#aG"/><use transform="matrix(0.06172839506172839,0,0,0.06172839506172839,11.11111111111111,0)" xlink:href="#U"/><use transform="matrix(0.06172839506172839,0,0,0.06172839506172839,23.45679012345679,0)" xlink:href="#R"/><use transform="matrix(0.06172839506172839,0,0,0.06172839506172839,30.80246913580247,0)" xlink:href="#T"/><use transform="matrix(0.06172839506172839,0,0,0.06172839506172839,41.91358024691358,0)" xlink:href="#ax"/><use transform="matrix(0.06172839506172839,0,0,0.06172839506172839,54.25925925925926,0)" xlink:href="#aD"/><use transform="matrix(0.06172839506172839,0,0,0.06172839506172839,66.60493827160494,0)" xlink:href="#aE"/><use transform="matrix(0.06172839506172839,0,0,0.06172839506172839,72.77777777777777,0)" xlink:href="#ag"/></g><g id="v"><use transform="matrix(0.06172839506172839,0,0,0.06172839506172839,0,0)" xlink:href="#aA"/><use transform="matrix(0.06172839506172839,0,0,0.06172839506172839,13.518518518518517,0)" xlink:href="#ay"/><use transform="matrix(0.06172839506172839,0,0,0.06172839506172839,19.691358024691358,0)" xlink:href="#X"/><use transform="matrix(0.06172839506172839,0,0,0.06172839506172839,38.148148148148145,0)" xlink:href="#Y"/></g><path fill="#333" d="M30-248c87 1 191-15 191 75 0 78-77 80-158 76V0H30v-248zm33 125c57 0 124 11 124-50 0-59-68-47-124-48v98" id="aH"/><g id="w"><use transform="matrix(0.06172839506172839,0,0,0.06172839506172839,0,0)" xlink:href="#aH"/><use transform="matrix(0.06172839506172839,0,0,0.06172839506172839,14.814814814814813,0)" xlink:href="#ac"/><use transform="matrix(0.06172839506172839,0,0,0.06172839506172839,30.80246913580247,0)" xlink:href="#Y"/><use transform="matrix(0.06172839506172839,0,0,0.06172839506172839,45.61728395061728,0)" xlink:href="#ay"/><use transform="matrix(0.06172839506172839,0,0,0.06172839506172839,51.79012345679012,0)" xlink:href="#az"/></g><g id="x"><use transform="matrix(0.06172839506172839,0,0,0.06172839506172839,0,0)" xlink:href="#V"/><use transform="matrix(0.06172839506172839,0,0,0.06172839506172839,15.987654320987653,0)" xlink:href="#ac"/></g><path fill="#333" d="M143 4C61 4 22-44 18-125c-5-107 100-154 193-111 17 8 29 25 37 43l-32 9c-13-25-37-40-76-40-61 0-88 39-88 99 0 61 29 100 91 101 35 0 62-11 79-27v-45h-74v-28h105v86C228-13 192 4 143 4" id="aI"/><g id="y"><use transform="matrix(0.06172839506172839,0,0,0.06172839506172839,0,0)" xlink:href="#aI"/><use transform="matrix(0.06172839506172839,0,0,0.06172839506172839,17.28395061728395,0)" xlink:href="#Y"/><use transform="matrix(0.06172839506172839,0,0,0.06172839506172839,32.09876543209876,0)" xlink:href="#Q"/></g><g id="z"><use transform="matrix(0.06172839506172839,0,0,0.06172839506172839,0,0)" xlink:href="#aC"/><use transform="matrix(0.06172839506172839,0,0,0.06172839506172839,17.28395061728395,0)" xlink:href="#ay"/><use transform="matrix(0.06172839506172839,0,0,0.06172839506172839,23.456790123456788,0)" xlink:href="#av"/><path fill="#333" d="M-1.1 1.54h38v1.63h-38z"/></g><g id="A"><use transform="matrix(0.06172839506172839,0,0,0.06172839506172839,0,0)" xlink:href="#Z"/><use transform="matrix(0.06172839506172839,0,0,0.06172839506172839,14.814814814814813,0)" xlink:href="#ax"/><use transform="matrix(0.06172839506172839,0,0,0.06172839506172839,27.160493827160494,0)" xlink:href="#aD"/><use transform="matrix(0.06172839506172839,0,0,0.06172839506172839,39.50617283950617,0)" xlink:href="#aE"/></g><path fill="#333" d="M137 0h-34L2-248h35l83 218 83-218h36" id="aJ"/><g id="B"><use transform="matrix(0.06172839506172839,0,0,0.06172839506172839,0,0)" xlink:href="#aJ"/><use transform="matrix(0.06172839506172839,0,0,0.06172839506172839,13.580246913580245,0)" xlink:href="#U"/><use transform="matrix(0.06172839506172839,0,0,0.06172839506172839,25.925925925925924,0)" xlink:href="#R"/><use transform="matrix(0.06172839506172839,0,0,0.06172839506172839,33.2716049382716,0)" xlink:href="#T"/><use transform="matrix(0.06172839506172839,0,0,0.06172839506172839,44.38271604938271,0)" xlink:href="#ax"/><use transform="matrix(0.06172839506172839,0,0,0.06172839506172839,56.728395061728385,0)" xlink:href="#aD"/><use transform="matrix(0.06172839506172839,0,0,0.06172839506172839,69.07407407407406,0)" xlink:href="#aE"/></g><g id="C"><use transform="matrix(0.06172839506172839,0,0,0.06172839506172839,0,0)" xlink:href="#Z"/><use transform="matrix(0.06172839506172839,0,0,0.06172839506172839,14.814814814814813,0)" xlink:href="#Y"/><use transform="matrix(0.06172839506172839,0,0,0.06172839506172839,29.629629629629626,0)" xlink:href="#az"/><use transform="matrix(0.06172839506172839,0,0,0.06172839506172839,44.44444444444444,0)" xlink:href="#aA"/></g><path fill="#333" d="M100-194c62-1 85 37 85 99 1 63-27 99-86 99S16-35 15-95c0-66 28-99 85-99zM99-20c44 1 53-31 53-75 0-43-8-75-51-75s-53 32-53 75 10 74 51 75zm22-194v-33h29v33h-29zm-69 0v-33h29v33H52" id="aK"/><g id="D"><use transform="matrix(0.06172839506172839,0,0,0.06172839506172839,0,0)" xlink:href="#Q"/><use transform="matrix(0.06172839506172839,0,0,0.06172839506172839,14.814814814814813,0)" xlink:href="#aK"/><use transform="matrix(0.06172839506172839,0,0,0.06172839506172839,27.160493827160494,0)" xlink:href="#R"/><use transform="matrix(0.06172839506172839,0,0,0.06172839506172839,34.50617283950617,0)" xlink:href="#ai"/><use transform="matrix(0.06172839506172839,0,0,0.06172839506172839,45.61728395061728,0)" xlink:href="#U"/></g><g id="E"><use transform="matrix(0.06172839506172839,0,0,0.06172839506172839,0,0)" xlink:href="#ai"/><use transform="matrix(0.06172839506172839,0,0,0.06172839506172839,11.11111111111111,0)" xlink:href="#ag"/><use transform="matrix(0.06172839506172839,0,0,0.06172839506172839,17.28395061728395,0)" xlink:href="#ax"/><use transform="matrix(0.06172839506172839,0,0,0.06172839506172839,29.629629629629626,0)" xlink:href="#ag"/><use transform="matrix(0.06172839506172839,0,0,0.06172839506172839,35.80246913580247,0)" xlink:href="#ag"/><use transform="matrix(0.06172839506172839,0,0,0.06172839506172839,41.97530864197531,0)" xlink:href="#aE"/><use transform="matrix(0.06172839506172839,0,0,0.06172839506172839,48.14814814814815,0)" xlink:href="#aj"/><use transform="matrix(0.06172839506172839,0,0,0.06172839506172839,53.0246913580247,0)" xlink:href="#ar"/><use transform="matrix(0.06172839506172839,0,0,0.06172839506172839,65.37037037037038,0)" xlink:href="#av"/><use transform="matrix(0.06172839506172839,0,0,0.06172839506172839,77.71604938271606,0)" xlink:href="#U"/><use transform="matrix(0.06172839506172839,0,0,0.06172839506172839,90.06172839506175,0)" xlink:href="#ar"/></g><path fill="#333" d="M209 0H11v-25l151-195H24v-28h176v25L50-27h159V0" id="aL"/><g id="F"><use transform="matrix(0.06172839506172839,0,0,0.06172839506172839,0,0)" xlink:href="#aA"/><use transform="matrix(0.06172839506172839,0,0,0.06172839506172839,13.518518518518517,0)" xlink:href="#aL"/></g><path fill="#333" d="M85 4C-4 8 31-112 24-190h32v120c0 31 7 50 39 49 72-2 45-101 50-169h31l1 190h-30c-1-10 1-25-2-33-11 22-28 36-60 37zm34-218v-33h29v33h-29zm-69 0v-33h29v33H50" id="aM"/><g id="G"><use transform="matrix(0.06172839506172839,0,0,0.06172839506172839,0,0)" xlink:href="#aD"/><use transform="matrix(0.06172839506172839,0,0,0.06172839506172839,12.345679012345679,0)" xlink:href="#ar"/><use transform="matrix(0.06172839506172839,0,0,0.06172839506172839,24.691358024691358,0)" xlink:href="#ag"/><use transform="matrix(0.06172839506172839,0,0,0.06172839506172839,30.864197530864196,0)" xlink:href="#U"/><use transform="matrix(0.06172839506172839,0,0,0.06172839506172839,43.20987654320987,0)" xlink:href="#R"/><use transform="matrix(0.06172839506172839,0,0,0.06172839506172839,50.55555555555555,0)" xlink:href="#ai"/><use transform="matrix(0.06172839506172839,0,0,0.06172839506172839,61.66666666666666,0)" xlink:href="#ag"/><use transform="matrix(0.06172839506172839,0,0,0.06172839506172839,67.83950617283949,0)" xlink:href="#aM"/><use transform="matrix(0.06172839506172839,0,0,0.06172839506172839,80.18518518518518,0)" xlink:href="#ag"/><use transform="matrix(0.06172839506172839,0,0,0.06172839506172839,86.35802469135801,0)" xlink:href="#ak"/><use transform="matrix(0.06172839506172839,0,0,0.06172839506172839,97.46913580246913,0)" xlink:href="#ag"/></g><path fill="#333" d="M16-82v-28h88v28H16" id="aN"/><g id="H"><use transform="matrix(0.06172839506172839,0,0,0.06172839506172839,0,0)" xlink:href="#ax"/><use transform="matrix(0.06172839506172839,0,0,0.06172839506172839,12.345679012345679,0)" xlink:href="#aD"/><use transform="matrix(0.06172839506172839,0,0,0.06172839506172839,24.691358024691358,0)" xlink:href="#ai"/><use transform="matrix(0.06172839506172839,0,0,0.06172839506172839,35.80246913580247,0)" xlink:href="#aN"/></g><path fill="#333" d="M96-169c-40 0-48 33-48 73s9 75 48 75c24 0 41-14 43-38l32 2c-6 37-31 61-74 61-59 0-76-41-82-99-10-93 101-131 147-64 4 7 5 14 7 22l-32 3c-4-21-16-35-41-35" id="aO"/><g id="I"><use transform="matrix(0.06172839506172839,0,0,0.06172839506172839,0,0)" xlink:href="#ai"/><use transform="matrix(0.06172839506172839,0,0,0.06172839506172839,11.11111111111111,0)" xlink:href="#aO"/><use transform="matrix(0.06172839506172839,0,0,0.06172839506172839,22.22222222222222,0)" xlink:href="#at"/><use transform="matrix(0.06172839506172839,0,0,0.06172839506172839,34.5679012345679,0)" xlink:href="#aM"/><use transform="matrix(0.06172839506172839,0,0,0.06172839506172839,46.913580246913575,0)" xlink:href="#ag"/><use transform="matrix(0.06172839506172839,0,0,0.06172839506172839,53.08641975308642,0)" xlink:href="#ag"/><use transform="matrix(0.06172839506172839,0,0,0.06172839506172839,59.25925925925926,0)" xlink:href="#U"/><use transform="matrix(0.06172839506172839,0,0,0.06172839506172839,71.60493827160494,0)" xlink:href="#ar"/></g><g id="J"><use transform="matrix(0.06172839506172839,0,0,0.06172839506172839,0,0)" xlink:href="#ae"/><use transform="matrix(0.06172839506172839,0,0,0.06172839506172839,15.987654320987653,0)" xlink:href="#W"/><use transform="matrix(0.06172839506172839,0,0,0.06172839506172839,29.1358024691358,0)" xlink:href="#aA"/><use transform="matrix(0.06172839506172839,0,0,0.06172839506172839,42.654320987654316,0)" xlink:href="#ab"/><use transform="matrix(0.06172839506172839,0,0,0.06172839506172839,58.64197530864197,0)" xlink:href="#X"/><path fill="#333" d="M-1.1 1.54h79.3v1.63H-1.1z"/></g><g id="K"><use transform="matrix(0.06172839506172839,0,0,0.06172839506172839,0,0)" xlink:href="#Y"/><use transform="matrix(0.06172839506172839,0,0,0.06172839506172839,14.814814814814813,0)" xlink:href="#ac"/><use transform="matrix(0.06172839506172839,0,0,0.06172839506172839,30.370370370370367,0)" xlink:href="#aA"/><use transform="matrix(0.06172839506172839,0,0,0.06172839506172839,43.888888888888886,0)" xlink:href="#ac"/><use transform="matrix(0.06172839506172839,0,0,0.06172839506172839,59.87654320987654,0)" xlink:href="#W"/><use transform="matrix(0.06172839506172839,0,0,0.06172839506172839,74.69135802469135,0)" xlink:href="#aI"/></g><g id="L"><use transform="matrix(0.06172839506172839,0,0,0.06172839506172839,0,0)" xlink:href="#Z"/><use transform="matrix(0.06172839506172839,0,0,0.06172839506172839,14.814814814814813,0)" xlink:href="#ab"/><use transform="matrix(0.06172839506172839,0,0,0.06172839506172839,30.80246913580247,0)" xlink:href="#ac"/><use transform="matrix(0.06172839506172839,0,0,0.06172839506172839,46.79012345679012,0)" xlink:href="#az"/></g><g id="M"><use transform="matrix(0.06172839506172839,0,0,0.06172839506172839,0,0)" xlink:href="#ae"/><use transform="matrix(0.06172839506172839,0,0,0.06172839506172839,15.987654320987653,0)" xlink:href="#aj"/><use transform="matrix(0.06172839506172839,0,0,0.06172839506172839,20.864197530864196,0)" xlink:href="#aG"/><use transform="matrix(0.06172839506172839,0,0,0.06172839506172839,31.975308641975307,0)" xlink:href="#aj"/><use transform="matrix(0.06172839506172839,0,0,0.06172839506172839,36.85185185185185,0)" xlink:href="#av"/><use transform="matrix(0.06172839506172839,0,0,0.06172839506172839,49.197530864197525,0)" xlink:href="#U"/><use transform="matrix(0.06172839506172839,0,0,0.06172839506172839,61.5432098765432,0)" xlink:href="#ar"/><use transform="matrix(0.06172839506172839,0,0,0.06172839506172839,73.88888888888889,0)" xlink:href="#av"/><use transform="matrix(0.06172839506172839,0,0,0.06172839506172839,86.23456790123457,0)" xlink:href="#U"/></g><g id="N"><use transform="matrix(0.06172839506172839,0,0,0.06172839506172839,0,0)" xlink:href="#ah"/><use transform="matrix(0.06172839506172839,0,0,0.06172839506172839,12.345679012345679,0)" xlink:href="#U"/><use transform="matrix(0.06172839506172839,0,0,0.06172839506172839,24.691358024691358,0)" xlink:href="#aj"/><use transform="matrix(0.06172839506172839,0,0,0.06172839506172839,29.5679012345679,0)" xlink:href="#ar"/><use transform="matrix(0.06172839506172839,0,0,0.06172839506172839,41.913580246913575,0)" xlink:href="#at"/><use transform="matrix(0.06172839506172839,0,0,0.06172839506172839,54.25925925925925,0)" xlink:href="#ax"/><use transform="matrix(0.06172839506172839,0,0,0.06172839506172839,66.60493827160494,0)" xlink:href="#as"/><use transform="matrix(0.06172839506172839,0,0,0.06172839506172839,71.48148148148148,0)" xlink:href="#ag"/><use transform="matrix(0.06172839506172839,0,0,0.06172839506172839,77.65432098765432,0)" xlink:href="#U"/><use transform="matrix(0.06172839506172839,0,0,0.06172839506172839,90,0)" xlink:href="#ar"/></g><path fill="#333" d="M182-182c0 78-84 86-111 141h115V0H12c-6-101 99-100 120-180 1-22-12-31-33-32-23 0-32 14-35 34l-49-3c5-45 32-70 84-70 51 0 83 22 83 69" id="aP"/><g id="O"><use transform="matrix(0.04938271604938272,0,0,0.04938271604938272,0,0)" xlink:href="#al"/><use transform="matrix(0.04938271604938272,0,0,0.04938271604938272,5.8765432098765435,0)" xlink:href="#aP"/><use transform="matrix(0.04938271604938272,0,0,0.04938271604938272,15.753086419753087,0)" xlink:href="#an"/><use transform="matrix(0.04938271604938272,0,0,0.04938271604938272,20.69135802469136,0)" xlink:href="#aq"/><use transform="matrix(0.04938271604938272,0,0,0.04938271604938272,27.604938271604947,0)" xlink:href="#ao"/></g><path fill="#333" d="M212-179c-10-28-35-45-73-45-59 0-87 40-87 99 0 60 29 101 89 101 43 0 62-24 78-52l27 14C228-24 195 4 139 4 59 4 22-46 18-125c-6-104 99-153 187-111 19 9 31 26 39 46" id="aQ"/><path fill="#333" d="M197 0v-115H63V0H30v-248h33v105h134v-105h34V0h-34" id="aR"/><g id="P"><use transform="matrix(0.06172839506172839,0,0,0.06172839506172839,0,0)" xlink:href="#aI"/><use transform="matrix(0.06172839506172839,0,0,0.06172839506172839,17.28395061728395,0)" xlink:href="#Y"/><use transform="matrix(0.06172839506172839,0,0,0.06172839506172839,32.09876543209876,0)" xlink:href="#aw"/><use transform="matrix(0.06172839506172839,0,0,0.06172839506172839,53.02469135802468,0)" xlink:href="#ay"/><use transform="matrix(0.06172839506172839,0,0,0.06172839506172839,59.197530864197525,0)" xlink:href="#aQ"/><use transform="matrix(0.06172839506172839,0,0,0.06172839506172839,75.18518518518518,0)" xlink:href="#aR"/><use transform="matrix(0.06172839506172839,0,0,0.06172839506172839,91.17283950617283,0)" xlink:href="#aA"/></g></defs></g></svg>