<svg xmlns="http://www.w3.org/2000/svg" xmlns:xlink="http://www.w3.org/1999/xlink" xmlns:lucid="lucid" width="460" height="460"><g transform="translate(-220 -60)" lucid:page-tab-id="0_0"><path d="M340 290c0 27.6-22.4 50-50 50s-50-22.4-50-50 22.4-50 50-50 50 22.4 50 50z" stroke="#5e5e5e" stroke-width="3" fill="#fff"/><use xlink:href="#a" transform="matrix(1,0,0,1,245,245) translate(32.0679012345679 48.71527777777778)"/><path d="M660 130c0 27.6-22.4 50-50 50s-50-22.4-50-50 22.4-50 50-50 50 22.4 50 50z" stroke="#5e5e5e" stroke-width="3" fill="#fff"/><use xlink:href="#b" transform="matrix(1,0,0,1,565,85) translate(32.0679012345679 48.71527777777778)"/><path d="M660 450c0 27.6-22.4 50-50 50s-50-22.4-50-50 22.4-50 50-50 50 22.4 50 50z" stroke="#5e5e5e" stroke-width="3" fill="#fff"/><use xlink:href="#c" transform="matrix(1,0,0,1,565,405) translate(32.0679012345679 48.71527777777778)"/><path d="M320.93 247.63l11.8-14.85 11.2-12.9 10.3-10.93 9.63-9.42 9.18-8.23 8.84-7.28 8.62-6.52 8.5-5.87 8.42-5.33 8.46-4.86 8.56-4.45 8.73-4.1 9-3.75 9.34-3.45 9.8-3.16 10.38-2.87 11.12-2.58 12.06-2.28 13.26-1.92 14.82-1.52 16.9-1.02h.16" stroke="#5e5e5e" stroke-width="2" fill="none"/><path d="M321.73 248.24l-.63.78-1.6-1.2.66-.83" fill="#5e5e5e"/><path d="M555.26 130.06l-14.17 4.9-.2-9.26z" stroke="#5e5e5e" stroke-width="2" fill="#5e5e5e"/><path d="M304.75 340.37l2.92 8.13 3.64 8.9 4 8.74 4.37 8.54 4.7 8.33 5.02 8.1 5.32 7.85 5.63 7.57 5.9 7.28 6.14 6.97 6.37 6.64 6.57 6.3 6.75 5.96 6.88 5.58 7.02 5.2 7.12 4.85 7.2 4.45 7.26 4.08 7.3 3.72 7.3 3.35 7.32 2.98 7.32 2.63 7.3 2.3 7.27 1.94 7.23 1.62 7.2 1.3 7.18.98 7.14.67 7.1.38 7.06.07 7.02-.22 7-.52 6.97-.8 6.93-1.1 6.94-1.4 6.92-1.7 6.9-2 2.54-.87" stroke="#5e5e5e" stroke-width="2" fill="none"/><path d="M305.7 340.06l-1.9.68-.36-1.03.37-.07 1.56-.5" fill="#5e5e5e"/><path d="M559.77 471.62l-11.63 9.48-3.35-8.65z" stroke="#5e5e5e" stroke-width="2" fill="#5e5e5e"/><path d="M582.8 405.14l-5.63-9.3-6.07-9.2-6.04-8.35-6.02-7.64-6.04-7.03-6.08-6.5-6.13-6.03-6.24-5.63-6.35-5.28-6.5-4.96-6.68-4.67-6.9-4.4-7.2-4.18-7.53-3.96-7.94-3.75-8.4-3.56-8.98-3.35-9.7-3.18-10.53-2.96-11.64-2.75-13-2.5-14.84-2.2-17.35-1.86L370 290.6l-9.98-.23" stroke="#5e5e5e" stroke-width="2" fill="none"/><path d="M584.17 405.5l-1.73 1-.52-.86 1.7-1.03" fill="#5e5e5e"/><path d="M344.74 290.07l14.35-4.35-.2 9.27z" stroke="#5e5e5e" stroke-width="2" fill="#5e5e5e"/><defs><path fill="#333" d="M127-220V0H93v-220H8v-28h204v28h-85" id="d"/><path fill="#333" d="M126-127c33 6 58 20 58 59 0 88-139 92-164 29-3-8-5-16-6-25l32-3c6 27 21 44 54 44 32 0 52-15 52-46 0-38-36-46-79-43v-28c39 1 72-4 72-42 0-27-17-43-46-43-28 0-47 15-49 41l-32-3c6-42 35-63 81-64 48-1 79 21 79 65 0 36-21 52-52 59" id="e"/><g id="a"><use transform="matrix(0.06172839506172839,0,0,0.06172839506172839,0,0)" xlink:href="#d"/><use transform="matrix(0.06172839506172839,0,0,0.06172839506172839,13.518518518518517,0)" xlink:href="#e"/></g><path fill="#333" d="M27 0v-27h64v-190l-56 39v-29l58-41h29v221h61V0H27" id="f"/><g id="b"><use transform="matrix(0.06172839506172839,0,0,0.06172839506172839,0,0)" xlink:href="#d"/><use transform="matrix(0.06172839506172839,0,0,0.06172839506172839,13.518518518518517,0)" xlink:href="#f"/></g><path fill="#333" d="M101-251c82-7 93 87 43 132L82-64C71-53 59-42 53-27h129V0H18c2-99 128-94 128-182 0-28-16-43-45-43s-46 15-49 41l-32-3c6-41 34-60 81-64" id="g"/><g id="c"><use transform="matrix(0.06172839506172839,0,0,0.06172839506172839,0,0)" xlink:href="#d"/><use transform="matrix(0.06172839506172839,0,0,0.06172839506172839,13.518518518518517,0)" xlink:href="#g"/></g></defs></g></svg>