<svg xmlns="http://www.w3.org/2000/svg" xmlns:xlink="http://www.w3.org/1999/xlink" xmlns:lucid="lucid" width="740" height="520.21"><g transform="translate(-220 80)" lucid:page-tab-id="0_0"><path d="M340 290c0 27.6-22.4 50-50 50s-50-22.4-50-50 22.4-50 50-50 50 22.4 50 50z" stroke="#5e5e5e" stroke-width="3" fill="#fff"/><use xlink:href="#a" transform="matrix(1,0,0,1,245,245) translate(32.0679012345679 48.71527777777778)"/><path d="M940 290c0 27.6-22.4 50-50 50s-50-22.4-50-50 22.4-50 50-50 50 22.4 50 50z" stroke="#5e5e5e" stroke-width="3" fill="#fff"/><use xlink:href="#b" transform="matrix(1,0,0,1,845,245) translate(32.0679012345679 48.71527777777778)"/><path d="M640 210c0 27.6-22.4 50-50 50s-50-22.4-50-50 22.4-50 50-50 50 22.4 50 50z" stroke="#5e5e5e" stroke-width="3" fill="#fff"/><use xlink:href="#c" transform="matrix(1,0,0,1,545,165) translate(32.0679012345679 48.71527777777778)"/><path d="M640-10c0 27.6-22.4 50-50 50s-50-22.4-50-50 22.4-50 50-50 50 22.4 50 50z" stroke="#5e5e5e" stroke-width="3" fill="#fff"/><use xlink:href="#d" transform="matrix(1,0,0,1,545,-55) translate(32.0679012345679 48.71527777777778)"/><path d="M290.02 237.5l.22-10.4.7-11.18 1.15-10.97 1.58-10.76 2.02-10.57 2.42-10.34 2.83-10.15 3.22-9.92 3.6-9.7 4-9.5 4.36-9.24 4.7-9.04 5.1-8.78 5.4-8.54 5.76-8.28 6.07-8.02 6.4-7.74 6.73-7.46 7.02-7.17 7.32-6.87 7.6-6.57 7.9-6.24 8.13-5.94 8.4-5.58 8.68-5.25 8.9-4.9 9.14-4.53 9.36-4.17 9.6-3.8 9.8-3.42L468.2-.5l10.24-2.62 10.45-2.22 10.65-1.8 10.86-1.38 9.6-.8" stroke="#5e5e5e" stroke-width="2" fill="none"/><path d="M291.02 237.5l-.02 1.05-1-.05-1 .03.02-1.08" fill="#5e5e5e"/><path d="M535.27-9.9l-14.1 5.15-.33-9.26z" stroke="#5e5e5e" stroke-width="2" fill="#5e5e5e"/><path d="M642.5-9.98l10.4.22 11.18.7 10.97 1.15 10.76 1.58 10.57 2.02 10.34 2.42L716.86.95l9.92 3.22 9.7 3.6 9.5 4 9.24 4.36 9.04 4.7 8.78 5.1 8.54 5.4 8.28 5.76 8.02 6.07 7.74 6.4 7.46 6.73 7.17 7.02 6.87 7.32 6.57 7.6 6.24 7.9 5.94 8.13 5.58 8.4 5.25 8.68 4.9 8.9 4.53 9.14 4.17 9.36 3.8 9.6 3.42 9.8 3.02 10.04 2.62 10.24 2.22 10.45 1.8 10.65 1.38 10.86.8 9.6" stroke="#5e5e5e" stroke-width="2" fill="none"/><path d="M642.55-10.98l-.04 2-1.05-.02.05-1-.03-1" fill="#5e5e5e"/><path d="M889.9 235.27l-5.15-14.1 9.26-.33z" stroke="#5e5e5e" stroke-width="2" fill="#5e5e5e"/><path d="M331.95 258.5l10.36-7.1 10.22-6.4 9.5-5.4 9.04-4.64 8.72-4.03 8.56-3.54 8.57-3.13 8.74-2.76 9.08-2.46 9.66-2.2L435 214.9l12.2-1.7 15-1.47 21.35-1.16 36.45-.38" stroke="#5e5e5e" stroke-width="2" fill="none"/><path d="M332.53 259.3l-.83.58-1.16-1.63.86-.6" fill="#5e5e5e"/><path d="M535.26 210.03l-14.2 4.8-.1-9.28z" stroke="#5e5e5e" stroke-width="2" fill="#5e5e5e"/><path d="M642.5 210.02l33.7.63 21.44 1.32 16.4 1.7 13.78 2.04 12.3 2.35 11.46 2.7 11.06 3.08 11 3.58 11.32 4.22 12 5.04 13.2 6.22 15.17 7.95 4.9 2.84" stroke="#5e5e5e" stroke-width="2" fill="none"/><path d="M642.55 209.02l-.04 2-1.05-.02.05-1-.03-1" fill="#5e5e5e"/><path d="M843.42 261.35l-14.65-3.18 4.66-8z" stroke="#5e5e5e" stroke-width="2" fill="#5e5e5e"/><path d="M590 42.5V140" stroke="#5e5e5e" stroke-width="2" fill="none"/><path d="M590 41.5l1-.03v1.06h-2v-1.08" fill="#5e5e5e"/><path d="M590 155.26L585.36 141h9.28z" stroke="#5e5e5e" stroke-width="2" fill="#5e5e5e"/><path d="M329.28 324.77l12.8 11.43 13.68 11.22 13.78 10.38 13.9 9.58 14 8.8 14.1 8.07 14.2 7.35 14.3 6.65 14.37 5.98 14.5 5.32 14.56 4.67 14.66 4.03 14.75 3.4 14.83 2.76 14.92 2.16 15 1.5 15.07.9 15.15.25 15.22-.37 15.3-1.02 15.35-1.67 15.4-2.34 15.46-3.02 15.5-3.7 15.5-4.4 15.55-5.12 15.54-5.86 15.54-6.6 15.53-7.4 15.5-8.16 15.43-9 15.36-9.84L819.3 350l15.18-11.63 2.84-2.37" stroke="#5e5e5e" stroke-width="2" fill="none"/><path d="M329.97 324.04l-1.33 1.5-.8-.7 1.38-1.47" fill="#5e5e5e"/><path d="M849 326.18l-7.93 12.72-5.97-7.1z" stroke="#5e5e5e" stroke-width="2" fill="#5e5e5e"/><defs><path fill="#333" d="M127-220V0H93v-220H8v-28h204v28h-85" id="e"/><path fill="#333" d="M101-251c82-7 93 87 43 132L82-64C71-53 59-42 53-27h129V0H18c2-99 128-94 128-182 0-28-16-43-45-43s-46 15-49 41l-32-3c6-41 34-60 81-64" id="f"/><g id="a"><use transform="matrix(0.06172839506172839,0,0,0.06172839506172839,0,0)" xlink:href="#e"/><use transform="matrix(0.06172839506172839,0,0,0.06172839506172839,13.518518518518517,0)" xlink:href="#f"/></g><path fill="#333" d="M155-56V0h-30v-56H8v-25l114-167h33v167h35v25h-35zm-30-156c-27 46-58 90-88 131h88v-131" id="g"/><g id="b"><use transform="matrix(0.06172839506172839,0,0,0.06172839506172839,0,0)" xlink:href="#e"/><use transform="matrix(0.06172839506172839,0,0,0.06172839506172839,13.518518518518517,0)" xlink:href="#g"/></g><path fill="#333" d="M126-127c33 6 58 20 58 59 0 88-139 92-164 29-3-8-5-16-6-25l32-3c6 27 21 44 54 44 32 0 52-15 52-46 0-38-36-46-79-43v-28c39 1 72-4 72-42 0-27-17-43-46-43-28 0-47 15-49 41l-32-3c6-42 35-63 81-64 48-1 79 21 79 65 0 36-21 52-52 59" id="h"/><g id="c"><use transform="matrix(0.06172839506172839,0,0,0.06172839506172839,0,0)" xlink:href="#e"/><use transform="matrix(0.06172839506172839,0,0,0.06172839506172839,13.518518518518517,0)" xlink:href="#h"/></g><path fill="#333" d="M27 0v-27h64v-190l-56 39v-29l58-41h29v221h61V0H27" id="i"/><g id="d"><use transform="matrix(0.06172839506172839,0,0,0.06172839506172839,0,0)" xlink:href="#e"/><use transform="matrix(0.06172839506172839,0,0,0.06172839506172839,13.518518518518517,0)" xlink:href="#i"/></g></defs></g></svg>